<svg xmlns="http://www.w3.org/2000/svg" width="520" height="520" viewBox="0 0 520 520" role="img" aria-labelledby="title">
  <title id="title">Teal arts guild hoodie</title>
  <rect width="520" height="520" rx="28" fill="#f5fffd"/>
  <path d="M130 154c18-58 242-58 260 0l-46 88v190H176V242l-46-88z" fill="#008891"/>
  <path d="M191 159c19-34 119-34 138 0-28 31-110 31-138 0z" fill="#063a40"/>
  <path d="M147 170l29 72M373 170l-29 72" stroke="#ff6b4a" stroke-width="18" stroke-linecap="round"/>
  <path d="M214 307h92c13 0 24 11 24 24v37H190v-37c0-13 11-24 24-24z" fill="#063a40" opacity=".35"/>
  <text x="260" y="278" text-anchor="middle" font-family="Arial, sans-serif" font-size="42" font-weight="700" fill="#f5fffd">ART</text>
  <path d="M211 392h98" stroke="#ff6b4a" stroke-width="12" stroke-linecap="round"/>
</svg>
